<svg width="42" height="32" viewBox="0 0 42 32" fill="none" xmlns="http://www.w3.org/2000/svg">
  <!-- Server Rack -->
  <rect x="6" y="4" width="30" height="24" rx="2" fill="url(#paint0_linear)" opacity="0.15"/>
  
  <!-- Database Cylinder -->
  <ellipse cx="21" cy="8" rx="10" ry="3" fill="url(#paint1_linear)" />
  <rect x="11" y="8" width="20" height="12" fill="url(#paint2_linear)" />
  <ellipse cx="21" cy="20" rx="10" ry="3" fill="url(#paint1_linear)" />
  
  <!-- Code Brackets -->
  <line x1="4" y1="10" x2="8" y2="14" stroke="url(#paint3_linear)" stroke-width="1.5" />
  <line x1="8" y1="10" x2="4" y2="14" stroke="url(#paint3_linear)" stroke-width="1.5" />
  <line x1="34" y1="10" x2="38" y2="14" stroke="url(#paint3_linear)" stroke-width="1.5" />
  <line x1="38" y1="10" x2="34" y2="14" stroke="url(#paint3_linear)" stroke-width="1.5" />
  
  <!-- Network Lines -->
  <line x1="21" y1="20" x2="21" y2="28" stroke="url(#paint4_linear)" stroke-width="1.5" stroke-dasharray="2 2" />
  <line x1="6" y1="28" x2="36" y2="28" stroke="url(#paint4_linear)" stroke-width="1.5" stroke-dasharray="2 2" />

  <!-- Cloud -->
  <path d="M28 24C28 25.1046 27.1046 26 26 26H22C20.8954 26 20 25.1046 20 24V23H26C27.1046 23 28 23.8954 28 25V24Z" fill="url(#paint5_linear)" />
  
  <defs>
    <linearGradient id="paint0_linear" x1="6" y1="4" x2="36" y2="28" gradientUnits="userSpaceOnUse">
      <stop offset="0.259336" stop-color="#FFDB6E"/>
      <stop offset="1" stop-color="#FFBC5E"/>
    </linearGradient>
    <linearGradient id="paint1_linear" x1="11" y1="8" x2="31" y2="20" gradientUnits="userSpaceOnUse">
      <stop offset="0.259336" stop-color="#FFDB6E"/>
      <stop offset="1" stop-color="#FFBC5E"/>
    </linearGradient>
    <linearGradient id="paint2_linear" x1="11" y1="8" x2="31" y2="20" gradientUnits="userSpaceOnUse">
      <stop offset="0.259336" stop-color="#FFDB6E"/>
      <stop offset="1" stop-color="#FFBC5E"/>
    </linearGradient>
    <linearGradient id="paint3_linear" x1="4" y1="10" x2="8" y2="14" gradientUnits="userSpaceOnUse">
      <stop offset="0.259336" stop-color="#FFDB6E"/>
      <stop offset="1" stop-color="#FFBC5E"/>
    </linearGradient>
    <linearGradient id="paint4_linear" x1="6" y1="28" x2="36" y2="28" gradientUnits="userSpaceOnUse">
      <stop offset="0.259336" stop-color="#FFDB6E"/>
      <stop offset="1" stop-color="#FFBC5E"/>
    </linearGradient>
    <linearGradient id="paint5_linear" x1="20" y1="23" x2="28" y2="26" gradientUnits="userSpaceOnUse">
      <stop offset="0.259336" stop-color="#FFDB6E"/>
      <stop offset="1" stop-color="#FFBC5E"/>
    </linearGradient>
  </defs>
</svg>
