<svg width="40" height="40" viewBox="0 0 40 40" fill="none" xmlns="http://www.w3.org/2000/svg">
  <!-- Background Circle -->
  <circle cx="20" cy="20" r="18" fill="url(#paint0_linear)" opacity="0.15"/>

  <!-- Magnifying Glass -->
  <circle cx="15" cy="15" r="4" stroke="url(#paint1_linear)" stroke-width="2"/>
  <line x1="18" y1="18" x2="25" y2="25" stroke="url(#paint1_linear)" stroke-width="2"/>

  <!-- Book -->
  <rect x="10" y="28" width="20" height="8" fill="url(#paint2_linear)" />
  <line x1="10" y1="32" x2="30" y2="32" stroke="white" stroke-width="0.5"/>
  <line x1="10" y1="34" x2="30" y2="34" stroke="white" stroke-width="0.5"/>

  <!-- Atom -->
  <circle cx="30" cy="10" r="3" fill="url(#paint3_linear)" />
  <path d="M27 10 Q30 7, 33 10 Q30 13, 27 10" stroke="url(#paint3_linear)" stroke-width="0.5" fill="none"/>
  <path d="M30 7 Q27 10, 30 13 Q33 10, 30 7" stroke="url(#paint3_linear)" stroke-width="0.5" fill="none"/>
  
  <defs>
    <linearGradient id="paint0_linear" x1="0" y1="0" x2="40" y2="40" gradientUnits="userSpaceOnUse">
      <stop offset="0.259336" stop-color="#FFDB6E"/>
      <stop offset="1" stop-color="#FFBC5E"/>
    </linearGradient>
    <linearGradient id="paint1_linear" x1="15" y1="15" x2="25" y2="25" gradientUnits="userSpaceOnUse">
      <stop offset="0.259336" stop-color="#FFDB6E"/>
      <stop offset="1" stop-color="#FFBC5E"/>
    </linearGradient>
    <linearGradient id="paint2_linear" x1="10" y1="28" x2="30" y2="36" gradientUnits="userSpaceOnUse">
      <stop offset="0.259336" stop-color="#FFDB6E"/>
      <stop offset="1" stop-color="#FFBC5E"/>
    </linearGradient>
    <linearGradient id="paint3_linear" x1="27" y1="7" x2="33" y2="13" gradientUnits="userSpaceOnUse">
      <stop offset="0.259336" stop-color="#FFDB6E"/>
      <stop offset="1" stop-color="#FFBC5E"/>
    </linearGradient>
  </defs>
</svg>
